<?xml version="1.0" standalone="no"?>
<!DOCTYPE svg PUBLIC "-//W3C//DTD SVG 20010904//EN"
 "http://www.w3.org/TR/2001/REC-SVG-20010904/DTD/svg10.dtd">
<svg version="1.0" xmlns="http://www.w3.org/2000/svg"
 width="583.000000pt" height="116.000000pt" viewBox="0 0 583.000000 116.000000"
 preserveAspectRatio="xMidYMid meet">

<g transform="translate(0.000000,116.000000) scale(0.100000,-0.100000)"
fill="#000000" stroke="none">
<path d="M830 1055 c-176 -44 -351 -132 -523 -262 -31 -24 -58 -47 -62 -53 -3
-5 -20 -10 -36 -10 -67 0 -129 -47 -129 -98 0 -36 50 -79 113 -97 30 -9 61
-23 68 -32 11 -13 10 -18 -10 -34 -33 -27 -79 -10 -93 33 -2 4 -25 5 -52 2
-47 -7 -49 -8 -74 -63 -52 -112 -28 -179 73 -202 44 -10 67 -9 127 3 l73 16
-66 1 c-51 1 -72 6 -93 22 -34 27 -47 60 -39 99 4 24 9 29 25 24 16 -5 85 -7
140 -5 27 2 76 49 83 82 10 46 -11 85 -59 109 -23 11 -54 20 -67 20 -34 0 -64
23 -56 44 9 22 50 20 72 -4 27 -29 102 -25 97 5 -2 11 -11 28 -20 38 -10 11
-12 21 -6 25 220 153 361 215 494 216 107 1 166 -23 191 -78 24 -54 24 -71 -6
-134 -32 -69 -18 -59 37 26 176 269 101 382 -202 307z"/>
<path d="M1478 859 c-10 -6 -18 -22 -18 -37 0 -54 48 -70 76 -27 15 23 15 27
0 50 -18 27 -31 30 -58 14z"/>
<path d="M2478 859 c-10 -6 -18 -22 -18 -37 0 -54 48 -70 76 -27 15 23 15 27
0 50 -18 27 -31 30 -58 14z"/>
<path d="M1241 847 c-44 -22 -64 -61 -56 -104 5 -30 22 -53 81 -109 41 -40 74
-77 74 -82 0 -19 -31 -42 -55 -42 -13 0 -32 11 -42 24 -18 22 -21 23 -46 10
-35 -19 -34 -36 3 -68 92 -77 227 -12 206 99 -6 31 -23 53 -84 111 -65 63 -74
75 -63 88 18 21 40 20 66 -4 20 -19 21 -19 49 4 34 27 30 39 -24 66 -45 23
-75 25 -109 7z"/>
<path d="M3150 786 l0 -74 -37 19 c-48 24 -80 24 -121 -1 -69 -42 -89 -150
-43 -226 37 -61 134 -81 182 -38 18 16 19 16 19 1 0 -13 9 -17 35 -17 l35 0 0
205 0 205 -35 0 -35 0 0 -74z m-23 -128 c34 -32 32 -99 -3 -127 -39 -31 -77
-27 -109 11 -21 25 -25 38 -21 62 14 70 85 99 133 54z"/>
<path d="M3925 845 c-74 -26 -135 -114 -135 -195 0 -110 100 -210 210 -210 83
0 168 61 189 135 21 77 23 75 -89 75 l-100 0 0 -35 0 -35 63 0 62 -1 -37 -34
c-31 -28 -46 -35 -79 -35 -81 0 -142 63 -142 147 0 110 128 170 222 103 l32
-22 25 23 25 24 -30 27 c-52 47 -139 60 -216 33z"/>
<path d="M1707 731 c-29 -15 -37 -16 -37 -5 0 9 -12 14 -35 14 l-35 0 0 -145
0 -145 35 0 35 0 0 89 c0 74 3 92 21 115 23 29 60 34 80 10 8 -10 15 -53 17
-115 l4 -99 34 0 34 0 0 104 c0 120 -11 161 -51 181 -37 20 -57 19 -102 -4z"/>
<path d="M1992 730 c-69 -42 -89 -150 -43 -226 37 -61 134 -81 182 -38 18 16
19 16 19 1 0 -13 9 -17 35 -17 l35 0 0 145 0 145 -35 0 c-23 0 -35 -5 -35 -14
0 -11 -8 -10 -37 5 -48 24 -80 24 -121 -1z m135 -72 c34 -32 32 -99 -3 -127
-39 -31 -77 -27 -109 11 -21 25 -25 38 -21 62 14 70 85 99 133 54z"/>
<path d="M2366 729 c-21 -17 -26 -18 -26 -5 0 11 -9 16 -30 16 l-30 0 0 -145
0 -145 35 0 35 0 0 88 c0 95 14 135 47 140 13 2 24 13 27 28 12 47 -14 58 -58
23z"/>
<path d="M2715 735 c-19 -10 -31 -12 -33 -6 -2 6 -19 11 -38 11 l-34 0 0 -145
0 -145 35 0 35 0 0 95 c0 82 3 98 20 115 26 26 66 26 80 1 5 -11 10 -63 10
-115 l0 -96 35 0 35 0 0 119 c0 110 -2 122 -22 146 -29 33 -83 42 -123 20z"/>
<path d="M3375 736 c-17 -7 -43 -28 -58 -45 -90 -107 9 -273 148 -247 70 13
115 73 115 153 0 63 -28 109 -83 133 -49 23 -80 24 -122 6z m112 -78 c51 -48
14 -148 -56 -148 -42 0 -85 52 -77 94 14 70 85 99 133 54z"/>
<path d="M4336 729 c-21 -17 -26 -18 -26 -5 0 11 -9 16 -30 16 l-30 0 0 -145
0 -145 35 0 35 0 0 88 c0 95 14 135 47 140 13 2 24 13 27 28 12 47 -14 58 -58
23z"/>
<path d="M4525 736 c-17 -7 -43 -28 -58 -45 -90 -107 9 -273 148 -247 70 13
115 73 115 153 0 63 -28 109 -83 133 -49 23 -80 24 -122 6z m112 -78 c51 -48
14 -148 -56 -148 -42 0 -85 52 -77 94 14 70 85 99 133 54z"/>
<path d="M5250 743 c-8 -3 -23 -12 -32 -21 -16 -14 -18 -13 -18 1 0 13 -9 17
-35 17 l-35 0 0 -200 0 -200 35 0 35 0 0 65 c0 36 2 65 4 65 2 0 17 -7 32 -15
86 -45 186 26 187 133 0 58 -23 115 -57 137 -27 18 -92 28 -116 18z m77 -85
c34 -32 32 -99 -3 -127 -39 -31 -77 -27 -109 11 -21 25 -25 38 -21 62 14 70
85 99 133 54z"/>
<path d="M1470 595 l0 -145 35 0 35 0 0 145 0 145 -35 0 -35 0 0 -145z"/>
<path d="M2470 595 l0 -145 35 0 35 0 0 145 0 145 -35 0 -35 0 0 -145z"/>
<path d="M4790 651 c0 -49 3 -102 6 -120 14 -69 92 -107 168 -80 58 20 73 53
82 182 l7 107 -42 0 -41 0 0 -103 c0 -112 -6 -127 -51 -127 -46 0 -59 31 -59
137 l0 93 -35 0 -35 0 0 -89z"/>
<path d="M415 722 c-52 -18 -59 -27 -46 -62 16 -47 15 -48 -26 -52 l-38 -3 31
-17 c30 -17 54 -54 54 -86 0 -9 -7 -30 -16 -47 -14 -27 -14 -30 2 -42 19 -14
27 -15 117 -14 40 0 69 6 97 22 l40 23 0 68 0 68 -75 0 -75 0 0 -29 c0 -26 4
-30 32 -33 47 -4 49 -33 5 -47 -73 -24 -117 11 -117 92 0 38 5 53 25 72 28 29
68 32 93 8 9 -10 27 -17 38 -15 15 2 23 -3 27 -17 4 -16 13 -21 41 -21 31 0
36 -3 36 -23 0 -19 9 -26 48 -38 35 -11 48 -20 50 -37 5 -33 -39 -50 -73 -28
-20 13 -25 14 -25 3 0 -8 -9 -22 -20 -32 -30 -27 -12 -37 69 -37 50 0 78 5 97
17 32 21 56 77 48 110 -9 35 -57 73 -102 80 -58 10 -84 23 -80 43 5 26 54 28
70 3 10 -16 23 -21 55 -21 37 0 43 3 43 20 0 30 -42 68 -84 75 -40 8 -123 -2
-131 -15 -3 -4 3 -22 12 -38 10 -17 14 -34 9 -39 -5 -4 -11 -2 -14 6 -3 8 -19
30 -36 49 -29 31 -38 34 -96 38 -36 2 -74 0 -85 -4z"/>
</g>
</svg>
